<?xml version="1.0" standalone="no"?>
<!DOCTYPE svg PUBLIC "-//W3C//DTD SVG 20010904//EN"
 "http://www.w3.org/TR/2001/REC-SVG-20010904/DTD/svg10.dtd">
<svg version="1.0" xmlns="http://www.w3.org/2000/svg"
 width="1080.000000pt" height="1080.000000pt" viewBox="0 0 1080.000000 1080.000000"
 preserveAspectRatio="xMidYMid meet">
<metadata>
Created by potrace 1.16, written by Peter Selinger 2001-2019
</metadata>
<g transform="translate(0.000000,1080.000000) scale(0.100000,-0.100000)"
fill="#6C63FF" stroke="none">
<path d="M5165 6743 c-29 -7 -58 -31 -270 -218 -104 -93 -266 -236 -360 -318
-261 -231 -293 -264 -310 -321 -12 -41 -15 -147 -15 -612 0 -309 3 -575 6
-593 6 -28 54 -90 72 -92 4 0 16 -2 27 -5 24 -4 1740 -4 1775 1 14 2 27 4 30
5 3 1 8 2 11 2 4 -1 16 9 27 21 40 43 28 137 -18 137 -21 0 -50 -31 -50 -53 0
-9 -4 -18 -9 -22 -15 -9 -1754 -6 -1763 3 -5 5 -9 272 -10 594 l-2 586 27 35
c15 20 71 75 125 124 120 108 301 268 362 320 24 21 72 63 105 93 33 30 90 81
125 112 36 31 80 70 97 86 18 16 42 28 52 27 11 -1 41 -21 68 -45 26 -23 69
-61 94 -84 25 -23 66 -59 91 -81 24 -22 68 -60 97 -85 28 -25 69 -61 90 -80
21 -19 62 -55 90 -80 29 -25 68 -58 86 -75 18 -16 57 -50 85 -75 29 -25 71
-62 93 -82 21 -21 43 -38 46 -38 4 0 17 -17 29 -39 19 -33 22 -54 22 -147 0
-60 4 -115 9 -123 12 -18 59 -21 72 -4 6 7 11 66 10 138 0 96 -4 133 -17 161
-17 35 -102 116 -384 364 -145 128 -215 190 -321 284 -92 82 -162 141 -188
157 -30 20 -77 29 -106 22z"/>
<path d="M4435 5791 c-115 -52 -137 -217 -45 -339 22 -29 40 -55 40 -57 0 -3
-23 -5 -51 -5 l-52 0 6 -55 c8 -78 41 -140 113 -210 92 -90 138 -110 251 -110
77 0 96 3 120 21 40 30 57 69 61 146 5 88 1 104 -53 177 -25 33 -45 64 -45 67
0 3 13 3 30 -1 52 -11 70 1 70 48 -1 65 -32 120 -117 205 -125 125 -226 160
-328 113z m200 -29 c52 -36 85 -95 85 -151 0 -35 -3 -42 -16 -37 -9 3 -32 6
-53 6 -33 0 -38 4 -56 43 -17 36 -25 42 -55 45 -41 3 -67 -13 -75 -48 -10 -41
25 -76 91 -91 134 -30 205 -145 159 -257 -32 -75 -90 -115 -170 -115 -102 -1
-173 65 -199 185 -6 25 -4 26 45 30 28 1 54 1 59 -2 4 -3 13 -22 19 -42 10
-29 20 -39 47 -48 61 -21 109 30 84 90 -12 29 -31 39 -114 61 -65 17 -119 69
-134 132 -16 63 -15 82 7 125 56 109 180 142 276 74z"/>
<path d="M5575 5796 c-37 -17 -80 -62 -94 -99 -14 -36 -14 -121 -1 -168 6 -20
28 -57 50 -82 22 -25 40 -48 40 -51 0 -3 -22 -6 -50 -6 l-50 0 0 -53 c0 -73
35 -140 113 -214 94 -91 132 -107 247 -108 80 0 99 3 122 20 37 27 55 68 63
141 9 76 -4 118 -56 184 -46 58 -49 75 -14 66 14 -4 37 -3 51 0 25 6 26 9 20
58 -4 28 -18 69 -31 91 -32 56 -171 186 -226 213 -52 25 -137 29 -184 8z m192
-31 c27 -16 51 -41 64 -66 24 -47 31 -125 12 -123 -7 1 -33 2 -57 3 -39 1 -44
4 -49 30 -8 40 -33 61 -71 61 -43 0 -68 -28 -64 -72 3 -36 33 -56 116 -78 47
-12 105 -58 128 -101 7 -15 14 -51 14 -80 0 -124 -112 -211 -231 -179 -55 15
-120 79 -137 137 -20 67 -18 71 38 75 63 4 70 1 70 -27 0 -38 33 -69 73 -69
48 0 67 18 67 64 0 46 -20 65 -85 81 -65 16 -94 31 -126 66 -53 57 -64 152
-26 215 58 96 164 121 264 63z"/>
<path d="M4880 5717 l0 -85 70 -62 70 -62 0 -186 0 -186 57 -58 57 -58 93 0
93 0 0 240 0 240 55 0 55 0 -1 98 0 97 -56 50 -56 50 -219 3 -218 3 0 -84z
m410 8 l0 -55 -32 0 c-18 0 -50 -3 -70 -6 l-38 -7 0 -253 0 -254 -54 0 -53 0
-6 68 c-4 37 -7 154 -7 260 l0 192 -70 0 -70 0 0 55 0 55 200 0 200 0 0 -55z"/>
</g>
</svg>
