<?xml version="1.0" standalone="no"?>
<!DOCTYPE svg PUBLIC "-//W3C//DTD SVG 20010904//EN"
 "http://www.w3.org/TR/2001/REC-SVG-20010904/DTD/svg10.dtd">
<svg version="1.0" xmlns="http://www.w3.org/2000/svg"
 width="508.000000pt" height="395.000000pt" viewBox="0 0 508.000000 395.000000"
 preserveAspectRatio="xMidYMid meet">
<metadata>
Created by potrace 1.16, written by Peter Selinger 2001-2019
</metadata>
<g transform="translate(0.000000,395.000000) scale(0.100000,-0.100000)"
fill="#000000" stroke="none">
<path d="M20 2295 l0 -1635 690 0 690 0 0 -325 0 -325 249 0 250 0 285 326
286 327 0 1633 0 1634 -1225 0 -1225 0 0 -1635z m1760 1461 c0 -2 -85 -74
-190 -161 l-190 -158 0 -1303 0 -1304 -605 0 -605 0 0 1465 0 1465 795 0 c437
0 795 -2 795 -4z m312 -156 l-200 -161 -105 3 -105 3 186 157 187 157 119 0
119 1 -201 -160z m-362 -1875 l0 -1545 -80 0 -80 0 0 1545 0 1545 80 0 80 0 0
-1545z m357 218 c12 -8 29 -31 39 -51 15 -32 15 -41 3 -76 -30 -86 -129 -111
-191 -48 -100 99 30 252 149 175z"/>
<path d="M2695 3741 c-103 -25 -165 -104 -165 -208 0 -130 46 -178 229 -238
103 -34 145 -68 145 -118 0 -73 -80 -113 -162 -81 -51 19 -120 84 -158 150
-44 75 -54 61 -54 -76 0 -109 2 -120 18 -120 10 0 23 5 29 11 9 9 26 9 69 0
90 -18 202 -14 252 9 85 38 124 105 124 210 0 125 -49 180 -202 227 -158 48
-196 80 -170 143 23 54 99 76 159 46 33 -18 104 -93 125 -135 9 -17 23 -31 31
-31 12 0 15 19 15 105 0 79 -3 105 -13 105 -7 0 -18 -5 -23 -10 -7 -7 -34 -6
-83 5 -77 16 -118 17 -166 6z"/>
<path d="M3205 3514 c-85 -31 -137 -113 -138 -218 -3 -166 72 -246 233 -246
121 0 188 45 206 139 10 49 -20 40 -46 -15 -27 -54 -57 -76 -106 -76 -50 0
-72 25 -85 97 -13 71 -5 211 15 260 16 37 49 53 71 35 22 -19 19 -50 -5 -50
-17 0 -20 -7 -20 -43 0 -56 30 -87 84 -87 51 0 72 14 86 56 23 68 -6 128 -73
153 -40 15 -175 12 -222 -5z"/>
<path d="M3622 3511 c-112 -53 -78 -211 40 -187 49 10 68 33 68 83 0 32 -4 43
-16 43 -25 0 -13 44 13 48 30 4 39 -18 48 -120 l7 -88 -64 0 c-125 0 -177 -29
-185 -103 -11 -96 31 -137 142 -137 57 0 69 3 90 25 14 13 25 20 25 16 0 -19
71 -41 128 -41 49 0 66 5 87 23 37 32 60 137 30 137 -9 0 -17 -14 -21 -40 -7
-43 -30 -73 -38 -49 -3 8 -6 79 -8 159 -4 158 -12 187 -61 224 -24 18 -45 21
-135 24 -90 2 -114 -1 -150 -17z"/>
<path d="M4350 3523 c-8 -3 -25 -15 -37 -26 l-23 -20 0 21 c0 21 -3 22 -125
22 -104 0 -125 -2 -125 -15 0 -10 10 -15 30 -15 l30 0 0 -200 0 -200 -30 0
c-20 0 -30 -5 -30 -15 0 -13 23 -15 145 -15 122 0 145 2 145 15 0 8 -9 15 -20
15 -19 0 -20 7 -20 148 0 154 11 201 52 226 36 22 43 -5 47 -194 3 -178 3
-180 -18 -180 -12 0 -21 -6 -21 -15 0 -13 22 -15 140 -15 118 0 140 2 140 15
0 9 -9 15 -24 15 l-24 0 -4 173 c-3 191 -12 223 -68 252 -28 15 -128 20 -160
8z"/>
<path d="M3140 2700 c0 -15 7 -20 25 -20 l25 0 0 -330 0 -330 -25 0 c-16 0
-25 -6 -25 -15 0 -13 22 -15 140 -15 118 0 140 2 140 15 0 9 -9 15 -21 15 -21
0 -21 3 -17 153 4 158 17 209 55 224 35 14 43 -23 43 -204 0 -166 -1 -173 -20
-173 -11 0 -20 -7 -20 -15 0 -13 39 -15 290 -15 251 0 290 2 290 15 0 9 -9 15
-25 15 l-25 0 0 215 0 215 -125 0 c-104 0 -125 -2 -125 -15 0 -10 10 -15 30
-15 l30 0 0 -200 0 -200 -55 0 -55 0 0 165 c0 231 -17 266 -136 273 -71 5
-116 -9 -139 -42 -13 -18 -15 -3 -15 142 l0 162 -120 0 c-113 0 -120 -1 -120
-20z"/>
<path d="M3822 2685 c-38 -17 -56 -56 -48 -104 10 -64 62 -91 138 -70 32 8 43
17 55 46 19 46 10 98 -20 117 -35 23 -88 28 -125 11z"/>
<path d="M2520 2623 c0 -27 -3 -85 -7 -130 -6 -78 -5 -83 14 -83 15 0 23 11
33 43 30 101 87 177 131 177 18 0 19 -14 19 -305 l0 -305 -40 0 c-29 0 -40 -4
-40 -15 0 -13 27 -15 180 -15 153 0 180 2 180 15 0 11 -11 15 -40 15 l-40 0 0
305 c0 303 0 305 21 305 36 0 84 -59 115 -142 22 -59 34 -78 48 -78 17 0 18 6
13 68 -4 37 -7 95 -7 130 l0 62 -290 0 -290 0 0 -47z"/>
<path d="M4362 2454 c-7 -13 -16 -15 -38 -9 -16 4 -58 9 -94 12 -119 7 -180
-49 -180 -164 0 -60 2 -67 33 -98 23 -23 57 -40 116 -59 107 -34 121 -42 121
-70 0 -31 -17 -44 -65 -51 -63 -10 -123 26 -155 92 -38 79 -50 69 -50 -37 0
-70 3 -90 14 -90 7 0 19 6 25 14 11 13 18 13 53 0 52 -18 161 -18 196 0 57 30
76 62 80 135 7 111 -25 148 -161 190 -87 27 -107 38 -107 60 0 29 29 46 75 45
53 -1 98 -32 126 -85 30 -60 44 -46 44 46 0 79 -13 105 -33 69z"/>
<path d="M2695 1591 c-103 -25 -165 -104 -165 -208 0 -130 46 -178 229 -238
103 -34 145 -68 145 -118 0 -73 -80 -113 -162 -81 -51 19 -120 84 -158 150
-44 75 -54 61 -54 -76 0 -109 2 -120 18 -120 10 0 23 5 29 11 9 9 26 9 69 0
90 -18 202 -14 252 9 85 38 124 105 124 210 0 125 -49 180 -202 227 -158 48
-196 80 -170 143 23 54 99 76 159 46 33 -18 104 -93 125 -135 9 -17 23 -31 31
-31 12 0 15 19 15 105 0 79 -3 105 -13 105 -7 0 -18 -5 -23 -10 -7 -7 -34 -6
-83 5 -77 16 -118 17 -166 6z"/>
<path d="M3360 1373 c-8 -3 -25 -15 -37 -26 l-23 -20 0 21 c0 21 -3 22 -120
22 -100 0 -120 -2 -120 -15 0 -9 9 -15 25 -15 l25 0 0 -315 0 -315 -25 0 c-16
0 -25 -6 -25 -15 0 -13 27 -15 185 -15 158 0 185 2 185 15 0 12 -14 15 -65 15
l-65 0 0 105 c0 95 7 123 25 95 3 -5 39 -10 78 -10 94 0 141 25 175 93 22 41
25 61 25 146 0 84 -4 106 -24 148 -33 66 -76 93 -148 92 -31 0 -63 -3 -71 -6z
m38 -82 c4 -14 7 -87 7 -162 -1 -112 -4 -141 -18 -163 -41 -61 -77 -13 -84
112 -3 48 0 114 6 146 17 93 70 133 89 67z"/>
<path d="M3733 1370 c-72 -23 -108 -117 -64 -171 25 -31 108 -34 140 -5 27 24
31 106 5 106 -25 0 -13 44 13 48 32 5 43 -30 43 -129 l0 -79 -61 0 c-128 0
-179 -35 -179 -124 1 -85 39 -116 145 -116 57 0 69 3 90 25 14 13 25 20 25 15
0 -20 61 -40 124 -40 84 0 115 23 123 93 7 56 19 69 28 29 16 -73 102 -122
215 -122 121 0 188 45 206 139 10 49 -20 40 -46 -15 -27 -54 -57 -76 -106 -76
-50 0 -72 25 -85 97 -13 71 -5 211 15 260 16 37 49 53 71 35 22 -19 19 -50 -5
-50 -31 0 -28 -79 3 -108 25 -24 84 -30 117 -12 25 13 43 73 36 114 -12 66
-69 96 -180 96 -172 0 -259 -83 -259 -247 0 -61 -3 -72 -19 -76 -12 -4 -18
-14 -18 -34 0 -36 -26 -76 -34 -53 -2 8 -7 81 -9 161 -7 221 -24 242 -196 246
-58 1 -120 -2 -138 -7z"/>
<path d="M4746 1365 c-50 -17 -112 -79 -127 -124 -7 -20 -12 -68 -12 -108 1
-116 49 -190 142 -222 53 -17 184 -14 226 6 38 18 95 93 95 125 0 28 -29 21
-41 -9 -16 -42 -49 -72 -92 -84 -79 -21 -119 21 -133 139 l-7 62 137 0 136 0
0 48 c0 69 -34 130 -90 159 -34 18 -59 23 -119 23 -42 -1 -93 -7 -115 -15z"/>
</g>
</svg>
