<?xml version="1.0" standalone="no"?>
<!DOCTYPE svg PUBLIC "-//W3C//DTD SVG 20010904//EN"
 "http://www.w3.org/TR/2001/REC-SVG-20010904/DTD/svg10.dtd">
<svg version="1.0" xmlns="http://www.w3.org/2000/svg"
 width="514.000000pt" height="357.000000pt" viewBox="0 0 514.000000 357.000000"
 preserveAspectRatio="xMidYMid meet">
<metadata>
Created by potrace 1.16, written by Peter Selinger 2001-2019
</metadata>
<g transform="translate(0.000000,357.000000) scale(0.100000,-0.100000)"
fill="#6C63FF" stroke="none">
<path d="M20 2075 l0 -1475 625 0 625 0 0 -295 0 -295 228 0 229 0 44 52 c24
29 140 162 257 296 l212 242 0 1475 0 1475 -1110 0 -1110 0 0 -1475z m1583
1307 c-12 -9 -92 -75 -177 -147 l-156 -129 0 -1178 0 -1178 -545 0 -545 0 0
1325 0 1325 723 0 c686 0 721 -1 700 -18z m457 4 c-8 -8 -89 -73 -179 -145
l-163 -131 -96 0 c-61 0 -93 3 -86 10 5 5 81 70 169 144 l160 135 105 0 c90 1
102 -1 90 -13z m-490 -1831 l0 -1395 -70 0 -70 0 0 1395 0 1395 70 0 70 0 0
-1395z m316 203 c55 -26 63 -113 16 -160 -54 -54 -138 -37 -166 33 -14 35 -14
43 0 78 25 63 83 82 150 49z"/>
<path d="M2729 3391 c-95 -31 -139 -91 -139 -192 0 -93 38 -128 196 -179 112
-36 136 -52 132 -89 -2 -21 -12 -29 -47 -40 -53 -17 -102 -7 -196 39 -33 16
-60 28 -60 27 0 -1 -14 -26 -29 -56 -28 -53 -28 -55 -10 -69 78 -59 275 -92
359 -59 92 36 126 81 128 171 2 105 -42 149 -197 197 -110 34 -136 50 -136 85
0 59 98 71 197 25 l62 -30 21 37 c12 20 23 47 23 61 2 22 -6 29 -58 50 -64 27
-195 38 -246 22z"/>
<path d="M3293 3239 c-56 -11 -95 -32 -127 -70 -48 -56 -60 -90 -60 -164 0
-90 36 -164 104 -210 42 -28 51 -30 140 -30 86 0 99 2 136 27 52 33 92 87 75
98 -7 4 -37 13 -67 20 -51 12 -56 12 -77 -8 -12 -11 -38 -23 -57 -27 -30 -5
-41 -2 -74 27 -31 27 -39 41 -43 79 -13 113 88 189 165 124 35 -30 30 -29 98
-9 65 19 68 33 15 84 -55 53 -142 76 -228 59z"/>
<path d="M3758 3239 c-53 -8 -105 -27 -135 -51 -10 -8 -9 -17 4 -42 28 -55 30
-56 78 -30 75 43 165 32 185 -22 16 -40 13 -42 -54 -37 -102 9 -151 -3 -195
-45 -69 -65 -66 -164 6 -219 32 -25 45 -28 112 -28 66 0 82 4 117 27 l41 27
11 -24 c13 -27 43 -38 93 -33 33 3 34 4 37 53 2 35 -1 53 -11 60 -12 8 -16 40
-19 132 -3 118 -4 122 -34 160 -52 65 -123 87 -236 72z m134 -277 c18 -18 -1
-61 -35 -82 -42 -26 -91 -26 -117 0 -33 33 -20 73 30 93 22 9 110 1 122 -11z"/>
<path d="M4375 3240 c-45 -7 -80 -23 -112 -53 l-23 -20 0 37 0 37 -57 -3 -58
-3 -3 -232 -2 -233 67 0 68 0 -3 125 c-4 150 8 187 71 215 87 39 107 4 107
-195 l0 -145 65 0 65 0 0 180 c0 239 -13 273 -110 290 -19 3 -53 3 -75 0z"/>
<path d="M3140 2105 l0 -325 65 0 65 0 0 140 0 140 33 37 c41 44 89 50 119 14
16 -20 18 -42 18 -177 l0 -154 71 0 72 0 -5 183 c-5 191 -11 220 -56 260 -48
44 -156 39 -219 -9 l-32 -25 -3 118 -3 118 -62 3 -63 3 0 -326z"/>
<path d="M3660 2365 l0 -65 65 0 65 0 0 65 0 65 -65 0 -65 0 0 -65z"/>
<path d="M2554 2396 c-3 -7 -4 -33 -2 -57 l3 -44 98 -3 97 -3 0 -254 0 -255
70 0 70 0 0 255 0 254 98 3 97 3 3 58 3 57 -266 0 c-217 0 -267 -3 -271 -14z"/>
<path d="M3996 2246 c-66 -18 -107 -61 -113 -119 -11 -94 15 -122 151 -167 64
-21 82 -31 84 -48 8 -50 -99 -54 -171 -6 -21 14 -44 23 -50 21 -7 -3 -21 -21
-31 -41 -23 -43 -17 -52 51 -86 69 -34 194 -40 249 -12 59 30 77 55 82 117 7
85 -23 117 -142 152 -100 30 -131 59 -87 83 38 20 137 1 156 -30 11 -18 24
-10 50 31 31 48 24 62 -40 90 -57 25 -132 31 -189 15z"/>
<path d="M3667 2243 c-4 -3 -7 -109 -7 -235 l0 -228 68 0 67 0 -3 235 -3 235
-58 0 c-32 0 -61 -3 -64 -7z"/>
<path d="M2729 1421 c-95 -31 -139 -91 -139 -192 0 -93 38 -128 196 -179 112
-36 136 -52 132 -89 -2 -21 -12 -29 -47 -40 -53 -17 -102 -7 -196 39 -33 16
-60 28 -60 27 0 -1 -14 -26 -29 -56 -28 -53 -28 -55 -10 -69 78 -59 275 -92
359 -59 92 36 126 81 128 171 2 105 -42 149 -197 197 -110 34 -136 50 -136 85
0 59 98 71 197 25 l62 -30 21 37 c12 20 23 47 23 61 2 22 -6 29 -58 50 -64 27
-195 38 -246 22z"/>
<path d="M3352 1269 c-23 -4 -55 -18 -70 -30 l-27 -21 -3 26 c-3 25 -6 26 -63
26 l-59 0 0 -330 0 -330 65 0 65 0 0 122 0 121 23 -21 c53 -50 154 -57 223
-17 75 44 108 115 107 226 -1 96 -43 169 -119 207 -50 25 -89 31 -142 21z m96
-154 c41 -44 44 -104 9 -156 -46 -69 -113 -74 -167 -13 -26 30 -30 42 -30 93
0 47 4 61 23 78 60 55 113 54 165 -2z"/>
<path d="M3825 1270 c-41 -5 -155 -45 -155 -55 0 -6 41 -95 44 -95 2 0 23 11
47 24 90 50 178 32 191 -37 4 -21 2 -22 -97 -22 -91 0 -105 -2 -137 -25 -48
-32 -68 -69 -68 -122 0 -52 27 -100 72 -129 27 -17 45 -20 103 -16 65 4 135
30 135 50 0 4 5 7 10 7 6 0 10 -7 10 -15 0 -25 45 -46 92 -43 l43 3 3 53 c2
40 -1 54 -12 58 -13 5 -16 25 -16 108 -1 144 -24 197 -100 236 -43 21 -98 28
-165 20z m126 -277 c17 -17 -2 -64 -35 -84 -87 -53 -186 20 -108 81 22 18 37
21 80 18 29 -3 57 -9 63 -15z"/>
<path d="M4343 1269 c-56 -11 -95 -32 -127 -70 -48 -56 -60 -90 -60 -164 0
-90 36 -164 104 -210 42 -28 51 -30 140 -30 86 0 99 2 136 27 52 33 92 87 75
98 -7 4 -37 13 -67 20 -51 12 -56 12 -77 -8 -12 -11 -38 -23 -57 -27 -30 -5
-41 -2 -74 27 -31 27 -39 41 -43 79 -13 113 88 189 165 124 35 -30 30 -29 98
-9 65 19 68 33 15 84 -55 53 -142 76 -228 59z"/>
<path d="M4833 1271 c-49 -8 -112 -48 -146 -93 -74 -96 -55 -259 38 -336 72
-59 194 -70 283 -26 54 27 112 89 96 103 -5 4 -31 13 -58 19 -43 11 -51 11
-58 -3 -24 -41 -109 -58 -154 -29 -22 15 -54 61 -54 79 0 3 79 5 175 5 l175 0
0 58 c0 112 -81 203 -196 222 -32 6 -59 9 -59 9 0 -1 -19 -5 -42 -8z m124
-122 c8 -7 21 -25 29 -41 l15 -28 -111 0 c-60 0 -110 3 -110 6 0 27 47 74 85
85 23 6 71 -5 92 -22z"/>
</g>
</svg>
